<?xml version="1.0" encoding="UTF-8" standalone="no"?>
<!DOCTYPE svg PUBLIC "-//W3C//DTD SVG 1.1//EN" "http://www.w3.org/Graphics/SVG/1.1/DTD/svg11.dtd">
<svg width="100%" height="100%" viewBox="0 0 340 588" version="1.1" xmlns="http://www.w3.org/2000/svg" xmlns:xlink="http://www.w3.org/1999/xlink" xml:space="preserve" xmlns:serif="http://www.serif.com/" style="fill-rule:evenodd;clip-rule:evenodd;stroke-linecap:round;stroke-linejoin:round;stroke-miterlimit:1.5;">
    <g transform="matrix(1,0,0,1,-116,-84)">
        <g transform="matrix(1,0,0,1,7,-58)">
            <g transform="matrix(0.7,0,0,1,-8.7,90)">
                <rect x="171" y="54" width="480" height="584" style="fill:rgb(255,255,190);stroke:black;stroke-width:4.63px;"/>
            </g>
            <g>
                <g transform="matrix(0.55,0,0,0.696517,173.45,282.952)">
                    <rect x="261" y="254" width="160" height="201" style="fill:rgb(52,179,205);"/>
                </g>
                <g transform="matrix(0.55,0,0,0.303483,85.45,382.782)">
                    <rect x="261" y="254" width="160" height="201" style="fill:rgb(0,3,255);"/>
                </g>
                <g transform="matrix(0.725,0,0,0.925373,-76.225,224.822)">
                    <rect x="261" y="254" width="160" height="201" style="fill:rgb(132,103,47);"/>
                </g>
            </g>
            <g transform="matrix(1,0,0,1,0,-166)">
                <g transform="matrix(0.55,0,0,0.696517,-29.55,136.085)">
                    <rect x="261" y="254" width="160" height="201" style="fill:rgb(218,113,255);"/>
                </g>
                <g transform="matrix(0.55,0,0,0.303483,169.45,235.915)">
                    <rect x="261" y="254" width="160" height="201" style="fill:rgb(0,255,92);"/>
                </g>
                <g transform="matrix(0.69375,0,0,1.14428,20.9312,22.3532)">
                    <rect x="261" y="254" width="160" height="201" style="fill:rgb(0,255,255);"/>
                </g>
            </g>
        </g>
    </g>
</svg>
