<?xml version="1.0" encoding="UTF-8" standalone="no"?>
<!DOCTYPE svg PUBLIC "-//W3C//DTD SVG 1.1//EN" "http://www.w3.org/Graphics/SVG/1.1/DTD/svg11.dtd">
<svg width="100%" height="100%" viewBox="0 0 342 226" version="1.1" xmlns="http://www.w3.org/2000/svg" xmlns:xlink="http://www.w3.org/1999/xlink" xml:space="preserve" xmlns:serif="http://www.serif.com/" style="fill-rule:evenodd;clip-rule:evenodd;stroke-linecap:round;stroke-linejoin:round;stroke-miterlimit:1.5;">
    <g transform="matrix(1,0,0,1,-397,-36.75)">
        <g transform="matrix(1,0,0,1,-6,0)">
            <g transform="matrix(1,0,0,1,-28,-45)">
                <g transform="matrix(1,0,0,0.898785,367,-16.914)">
                    <rect x="66" y="112" width="338" height="247" style="fill:rgb(255,250,219);stroke:black;stroke-width:4.21px;"/>
                </g>
                <g transform="matrix(0.4125,0,0,0.303483,595.33,62.9154)">
                    <rect x="261" y="254" width="160" height="201" style="fill:rgb(151,239,148);"/>
                </g>
                <g transform="matrix(0.725,0,0,0.41791,464.767,113.601)">
                    <rect x="261" y="254" width="160" height="201" style="fill:rgb(185,187,255);"/>
                </g>
                <g transform="matrix(0.55,0,0,0.179104,537.442,39.7575)">
                    <rect x="261" y="254" width="160" height="201" style="fill:rgb(255,172,255);"/>
                </g>
            </g>
            <g transform="matrix(1,0,0,1,-438,-404)">
                <text x="854px" y="468.191px" style="font-family:'ArialMT', 'Arial', sans-serif;font-size:24px;">2</text>
            </g>
        </g>
    </g>
</svg>
