<?xml version="1.0" encoding="UTF-8" standalone="no"?>
<!DOCTYPE svg PUBLIC "-//W3C//DTD SVG 1.1//EN" "http://www.w3.org/Graphics/SVG/1.1/DTD/svg11.dtd">
<svg width="100%" height="100%" viewBox="0 0 521 521" version="1.1" xmlns="http://www.w3.org/2000/svg" xmlns:xlink="http://www.w3.org/1999/xlink" xml:space="preserve" xmlns:serif="http://www.serif.com/" style="fill-rule:evenodd;clip-rule:evenodd;stroke-linecap:round;stroke-linejoin:round;stroke-miterlimit:1.5;">
    <g transform="matrix(1,0,0,1,-43,-30.75)">
        <g transform="matrix(1,0,0,1,-3,2)">
            <g transform="matrix(0.7,0,0,0.575342,79.3,136.015)">
                <rect x="171" y="54" width="480" height="584" style="fill:rgb(255,255,190);stroke:black;stroke-width:6.24px;"/>
            </g>
            <g transform="matrix(0.98482,0,0,1,-122.389,-121)">
                <path d="M172,284L699,284" style="fill:none;stroke:rgb(182,0,0);stroke-width:2.02px;stroke-dasharray:2.02,2.02;"/>
            </g>
            <g transform="matrix(1,0,0,1,-776,-88.5)">
                <text x="827px" y="270.316px" style="font-family:'Arial-BoldMT', 'Arial', sans-serif;font-weight:700;font-size:20px;fill:rgb(182,0,0);">cross - start</text>
            </g>
            <g transform="matrix(1.15042e-17,0.981025,1.03012,-1.48677e-16,-98.5542,-138.986)">
                <path d="M172,284L699,284" style="fill:none;stroke:rgb(182,0,0);stroke-width:1.99px;stroke-dasharray:1.99,1.99;"/>
            </g>
            <g transform="matrix(6.12323e-17,-1,1,6.12323e-17,-54.5,969)">
                <text x="827px" y="270.316px" style="font-family:'Arial-BoldMT', 'Arial', sans-serif;font-weight:700;font-size:20px;fill:rgb(182,0,0);">main - start</text>
            </g>
            <g transform="matrix(6.12323e-17,-1,1,6.12323e-17,260.5,961)">
                <text x="827px" y="270.316px" style="font-family:'Arial-BoldMT', 'Arial', sans-serif;font-weight:700;font-size:20px;fill:rgb(182,0,0);">main - end</text>
            </g>
            <g transform="matrix(6.03028e-17,-0.98482,1.00306,6.14199e-17,254.38,718.139)">
                <path d="M172,284L699,284" style="fill:none;stroke:rgb(182,0,0);stroke-width:2.01px;stroke-dasharray:2.01,2.01;"/>
            </g>
            <g transform="matrix(0.98482,0,0,1,-122.389,223)">
                <path d="M172,284L699,284" style="fill:none;stroke:rgb(182,0,0);stroke-width:2.02px;stroke-dasharray:2.02,2.02;"/>
            </g>
            <g transform="matrix(1,0,0,1,-771,230.5)">
                <text x="827px" y="270.316px" style="font-family:'Arial-BoldMT', 'Arial', sans-serif;font-weight:700;font-size:20px;fill:rgb(182,0,0);">cross - end</text>
            </g>
            <g transform="matrix(1,0,0,1,3,-426)">
                <g transform="matrix(1,0,0,1,-502.875,351)">
                    <text x="823px" y="215.316px" style="font-family:'Arial-BoldMT', 'Arial', sans-serif;font-weight:700;font-size:20px;">main - axis</text>
                </g>
                <g transform="matrix(0.985476,0,0,0.985476,83.6122,434.193)">
                    <g transform="matrix(4.49037e-17,-0.733333,-0.733333,-4.49037e-17,664.25,804.4)">
                        <path d="M898.5,285L906,300L891,300L898.5,285Z" style="stroke:black;stroke-width:2.77px;"/>
                    </g>
                    <g transform="matrix(1,0,0,1,0,-0.5)">
                        <path d="M111,146L445,146" style="fill:none;stroke:black;stroke-width:2.03px;"/>
                    </g>
                </g>
            </g>
            <g transform="matrix(6.12323e-17,-1,1,6.12323e-17,-48.375,1211.5)">
                <text x="823px" y="215.316px" style="font-family:'Arial-BoldMT', 'Arial', sans-serif;font-weight:700;font-size:20px;">cross - axis</text>
            </g>
            <g transform="matrix(-5.99872e-17,-0.979666,-1,6.12323e-17,321.625,610.868)">
                <path d="M111,146L445,146" style="fill:none;stroke:black;stroke-width:2.02px;"/>
            </g>
            <g transform="matrix(1,0,0,-1,0,671.521)">
                <g transform="matrix(-5.99872e-17,-0.979666,-1,6.12323e-17,321.625,610.868)">
                    <path d="M111,146L445,146" style="fill:none;stroke:black;stroke-width:2.02px;"/>
                </g>
                <g transform="matrix(-0.733333,9.13075e-19,-9.13075e-19,0.718422,834.525,-35.3544)">
                    <path d="M898.5,285L906,300L891,300L898.5,285Z" style="stroke:black;stroke-width:2.76px;"/>
                </g>
            </g>
            <g transform="matrix(1,0,0,1,-106.875,-587)">
                <text x="409.668px" y="639.191px" style="font-family:'ArialMT', 'Arial', sans-serif;font-size:24px;stroke:rgb(0,175,0);stroke-width:1px;stroke-linecap:butt;stroke-miterlimit:2;">Row Layout</text>
            </g>
            <g transform="matrix(1,0,0,1,-117.875,-545)">
                <text x="403px" y="636.326px" style="font-family:'ArialMT', 'Arial', sans-serif;font-size:20px;stroke:rgb(0,175,0);stroke-width:1px;stroke-linecap:butt;stroke-miterlimit:2;">ﬂex - wrap = wrap</text>
            </g>
            <g transform="matrix(1,0,0,1,-196,-272)">
                <g transform="matrix(1,0,0,1,-368,133)">
                    <g transform="matrix(0.55,0,0,0.363184,824.45,384.618)">
                        <rect x="261" y="254" width="160" height="201" style="fill:rgb(125,203,233);"/>
                    </g>
                    <g transform="matrix(1,0,0,1,249,-155.892)">
                        <text x="733px" y="654.191px" style="font-family:'ArialMT', 'Arial', sans-serif;font-size:24px;">6</text>
                    </g>
                </g>
                <g transform="matrix(1,0,0,1,-368,133)">
                    <g transform="matrix(0.55,0,0,0.427861,736.45,368.19)">
                        <rect x="261" y="254" width="160" height="201" style="fill:rgb(200,133,85);"/>
                    </g>
                    <g transform="matrix(1,0,0,1,161,-156)">
                        <text x="733px" y="654.191px" style="font-family:'ArialMT', 'Arial', sans-serif;font-size:24px;">5</text>
                    </g>
                </g>
                <g transform="matrix(1,0,0,1,-366,132)">
                    <g transform="matrix(0.725,0,0,0.393035,572.775,378.036)">
                        <rect x="261" y="254" width="160" height="201" style="fill:rgb(193,162,130);"/>
                    </g>
                    <g transform="matrix(1,0,0,1,41,-155)">
                        <text x="733px" y="654.191px" style="font-family:'ArialMT', 'Arial', sans-serif;font-size:24px;">4</text>
                    </g>
                </g>
            </g>
            <g transform="matrix(1,0,0,1,-37,-76)">
                <g transform="matrix(1,0,0,1,-386,-81)">
                    <g transform="matrix(0.55,0,0,0.472637,662.442,207.2)">
                        <rect x="261" y="254" width="160" height="201" style="fill:rgb(255,172,255);"/>
                    </g>
                    <g transform="matrix(1,0,0,1,407,-290.201)">
                        <text x="408px" y="641.191px" style="font-family:'ArialMT', 'Arial', sans-serif;font-size:24px;">3</text>
                    </g>
                </g>
                <g transform="matrix(1,0,0,1,-452,-20)">
                    <g transform="matrix(0.4125,0,0,0.303483,698.33,189.165)">
                        <rect x="261" y="254" width="160" height="201" style="fill:rgb(151,239,148);"/>
                    </g>
                    <g transform="matrix(1,0,0,1,407,-347.625)">
                        <text x="408px" y="641.191px" style="font-family:'ArialMT', 'Arial', sans-serif;font-size:24px;">2</text>
                    </g>
                </g>
                <g transform="matrix(1,0,0,1,-568,64)">
                    <g transform="matrix(0.725,0,0,0.41791,616.767,76.1007)">
                        <rect x="261" y="254" width="160" height="201" style="fill:rgb(185,187,255);"/>
                    </g>
                    <g transform="matrix(1,0,0,1,407,-434.565)">
                        <text x="408px" y="641.191px" style="font-family:'ArialMT', 'Arial', sans-serif;font-size:24px;">1</text>
                    </g>
                </g>
            </g>
        </g>
    </g>
</svg>
