<?xml version="1.0" encoding="UTF-8" standalone="no"?>
<!DOCTYPE svg PUBLIC "-//W3C//DTD SVG 1.1//EN" "http://www.w3.org/Graphics/SVG/1.1/DTD/svg11.dtd">
<svg width="100%" height="100%" viewBox="0 0 514 516" version="1.1" xmlns="http://www.w3.org/2000/svg" xmlns:xlink="http://www.w3.org/1999/xlink" xml:space="preserve" xmlns:serif="http://www.serif.com/" style="fill-rule:evenodd;clip-rule:evenodd;stroke-linecap:round;stroke-linejoin:round;stroke-miterlimit:1.5;">
    <g transform="matrix(1,0,0,1,-706,-31.5703)">
        <g>
            <g transform="matrix(0.7,0,0,0.575342,718.3,139.015)">
                <rect x="171" y="54" width="480" height="584" style="fill:rgb(255,255,190);stroke:black;stroke-width:6.24px;"/>
            </g>
            <g transform="matrix(0.971537,0,0,1,539.896,-118)">
                <path d="M172,284L699,284" style="fill:none;stroke:rgb(182,0,0);stroke-width:2.03px;stroke-dasharray:2.03,2.03;"/>
            </g>
            <g transform="matrix(1,0,0,1,-122,-85.5)">
                <text x="827px" y="270.316px" style="font-family:'Arial-BoldMT', 'Arial', sans-serif;font-weight:700;font-size:20px;fill:rgb(182,0,0);">main - start</text>
            </g>
            <g transform="matrix(9.33861e-18,0.973435,0.992263,-1.49356e-16,551.197,-134.681)">
                <path d="M172,284L699,284" style="fill:none;stroke:rgb(182,0,0);stroke-width:2.03px;stroke-dasharray:2.03,2.03;"/>
            </g>
            <g transform="matrix(6.12323e-17,-1,1,6.12323e-17,587.5,975)">
                <text x="827px" y="270.316px" style="font-family:'Arial-BoldMT', 'Arial', sans-serif;font-weight:700;font-size:20px;fill:rgb(182,0,0);">cross - start</text>
            </g>
            <g transform="matrix(6.12323e-17,-1,1,6.12323e-17,899.5,964)">
                <text x="827px" y="270.316px" style="font-family:'Arial-BoldMT', 'Arial', sans-serif;font-weight:700;font-size:20px;fill:rgb(182,0,0);">cross - end</text>
            </g>
            <g transform="matrix(5.96057e-17,-0.973435,0.962477,5.89347e-17,904.907,713.181)">
                <path d="M172,284L699,284" style="fill:none;stroke:rgb(182,0,0);stroke-width:2.07px;stroke-dasharray:2.07,2.07;"/>
            </g>
            <g transform="matrix(0.956357,0,0,1,547.507,226)">
                <path d="M172,284L699,284" style="fill:none;stroke:rgb(182,0,0);stroke-width:2.04px;stroke-dasharray:2.04,2.04;"/>
            </g>
            <g transform="matrix(1,0,0,1,-117,233.5)">
                <text x="827px" y="270.316px" style="font-family:'Arial-BoldMT', 'Arial', sans-serif;font-weight:700;font-size:20px;fill:rgb(182,0,0);">main - end</text>
            </g>
            <g transform="matrix(1,0,0,1,122.125,-63)">
                <text x="823px" y="215.316px" style="font-family:'Arial-BoldMT', 'Arial', sans-serif;font-weight:700;font-size:20px;">cross - axis</text>
            </g>
            <g transform="matrix(-0.985476,0,0,0.985476,1282.64,13.1932)">
                <g transform="matrix(4.49037e-17,-0.733333,-0.733333,-4.49037e-17,664.25,804.4)">
                    <path d="M898.5,285L906,300L891,300L898.5,285Z" style="stroke:black;stroke-width:2.77px;"/>
                </g>
                <g transform="matrix(1,0,0,1,0,-0.5)">
                    <path d="M111,146L445,146" style="fill:none;stroke:black;stroke-width:2.03px;"/>
                </g>
            </g>
            <g transform="matrix(1,0,0,1,25,3)">
                <g transform="matrix(6.12323e-17,-1,1,6.12323e-17,967.625,1211.5)">
                    <text x="823px" y="215.316px" style="font-family:'Arial-BoldMT', 'Arial', sans-serif;font-weight:700;font-size:20px;">main - axis</text>
                </g>
                <g transform="matrix(1,0,0,1.01803,786,-82.1314)">
                    <g transform="matrix(-5.99872e-17,0.979666,1,6.12323e-17,230.625,133.653)">
                        <path d="M111,146L445,146" style="fill:none;stroke:black;stroke-width:2px;"/>
                    </g>
                    <g transform="matrix(-0.733333,-9.13075e-19,-9.13075e-19,-0.718422,1035.53,779.875)">
                        <path d="M898.5,285L906,300L891,300L898.5,285Z" style="stroke:black;stroke-width:2.73px;"/>
                    </g>
                </g>
            </g>
            <g transform="matrix(1,0,0,1,515.5,-584)">
                <text x="409.668px" y="639.191px" style="font-family:'ArialMT', 'Arial', sans-serif;font-size:24px;stroke:rgb(0,175,0);stroke-width:1px;stroke-linecap:butt;stroke-miterlimit:2;">Column Layout</text>
            </g>
            <g transform="matrix(1,0,0,1,477,-547)">
                <text x="403px" y="636.326px" style="font-family:'ArialMT', 'Arial', sans-serif;font-size:20px;stroke:rgb(0,175,0);stroke-width:1px;stroke-linecap:butt;stroke-miterlimit:2;">ﬂex - wrap = wrap - reverse</text>
            </g>
            <g transform="matrix(1,0,0,1,46,-1)">
                <g transform="matrix(1,0,0,1,-101,-139)">
                    <g transform="matrix(0.55,0,0,0.363184,824.45,384.618)">
                        <rect x="261" y="254" width="160" height="201" style="fill:rgb(125,203,233);"/>
                    </g>
                    <g transform="matrix(1,0,0,1,249,-155.892)">
                        <text x="733px" y="654.191px" style="font-family:'ArialMT', 'Arial', sans-serif;font-size:24px;">6</text>
                    </g>
                </g>
                <g transform="matrix(1,0,0,1,-13,-225)">
                    <g transform="matrix(0.55,0,0,0.427861,736.45,368.19)">
                        <rect x="261" y="254" width="160" height="201" style="fill:rgb(200,133,85);"/>
                    </g>
                    <g transform="matrix(1,0,0,1,161,-156)">
                        <text x="733px" y="654.191px" style="font-family:'ArialMT', 'Arial', sans-serif;font-size:24px;">5</text>
                    </g>
                </g>
                <g transform="matrix(1,0,0,1,77,-305)">
                    <g transform="matrix(0.725,0,0,0.393035,572.775,378.036)">
                        <rect x="261" y="254" width="160" height="201" style="fill:rgb(193,162,130);"/>
                    </g>
                    <g transform="matrix(1,0,0,1,41,-155)">
                        <text x="733px" y="654.191px" style="font-family:'ArialMT', 'Arial', sans-serif;font-size:24px;">4</text>
                    </g>
                </g>
            </g>
            <g>
                <g transform="matrix(1,0,0,1,277,-12)">
                    <g transform="matrix(0.55,0,0,0.472637,662.442,207.2)">
                        <rect x="261" y="254" width="160" height="201" style="fill:rgb(255,172,255);"/>
                    </g>
                    <g transform="matrix(1,0,0,1,407,-290.201)">
                        <text x="408px" y="641.191px" style="font-family:'ArialMT', 'Arial', sans-serif;font-size:24px;">3</text>
                    </g>
                </g>
                <g transform="matrix(1,0,0,1,299,-12)">
                    <g transform="matrix(0.4125,0,0,0.303483,698.33,189.165)">
                        <rect x="261" y="254" width="160" height="201" style="fill:rgb(151,239,148);"/>
                    </g>
                    <g transform="matrix(1,0,0,1,407,-347.625)">
                        <text x="408px" y="641.191px" style="font-family:'ArialMT', 'Arial', sans-serif;font-size:24px;">2</text>
                    </g>
                </g>
                <g transform="matrix(1,0,0,1,249,-12)">
                    <g transform="matrix(0.725,0,0,0.41791,616.767,76.1007)">
                        <rect x="261" y="254" width="160" height="201" style="fill:rgb(185,187,255);"/>
                    </g>
                    <g transform="matrix(1,0,0,1,407,-434.565)">
                        <text x="408px" y="641.191px" style="font-family:'ArialMT', 'Arial', sans-serif;font-size:24px;">1</text>
                    </g>
                </g>
            </g>
        </g>
    </g>
</svg>
