<?xml version="1.0" encoding="UTF-8" standalone="no"?>
<!DOCTYPE svg PUBLIC "-//W3C//DTD SVG 1.1//EN" "http://www.w3.org/Graphics/SVG/1.1/DTD/svg11.dtd">
<svg width="100%" height="100%" viewBox="0 0 961 346" version="1.1" xmlns="http://www.w3.org/2000/svg" xmlns:xlink="http://www.w3.org/1999/xlink" xml:space="preserve" xmlns:serif="http://www.serif.com/" style="fill-rule:evenodd;clip-rule:evenodd;stroke-linecap:round;stroke-linejoin:round;stroke-miterlimit:1.5;">
    <g transform="matrix(1,0,0,1,-24,-363.547)">
        <g>
            <g transform="matrix(1,0,0,1,-373,30)">
                <g transform="matrix(1.07721,0,0,1.04643,-30.6507,-30.3643)">
                    <g transform="matrix(1.20354,0,0,1.23894,307.938,-57.1504)">
                        <circle cx="187" cy="461" r="113" style="fill:rgb(235,240,0);"/>
                    </g>
                    <g transform="matrix(0.928328,0,0,0.955631,353.647,231.67)">
                        <text x="91px" y="213.923px" style="font-family:'ArialMT', 'Arial', sans-serif;font-size:20.833px;">Abstract Characters</text>
                    </g>
                </g>
                <g transform="matrix(1,0,0,1,348,-143)">
                    <g transform="matrix(1,0,0,1,-412,27)">
                        <g transform="matrix(1.04145,0,0,1.04145,347.658,125.047)">
                            <circle cx="249.5" cy="505.5" r="96.5" style="fill:rgb(235,179,255);"/>
                        </g>
                        <g transform="matrix(1,0,0,1,433,425.25)">
                            <text x="91px" y="213.923px" style="font-family:'ArialMT', 'Arial', sans-serif;font-size:20.833px;fill:rgb(235,179,255);">Unicode <tspan x="172.075px 185.971px " y="213.923px 213.923px ">Ab</tspan>stract</text>
                            <text x="91px" y="235.438px" style="font-family:'ArialMT', 'Arial', sans-serif;font-size:20.833px;fill:rgb(235,179,255);">Characters</text>
                        </g>
                    </g>
                    <g transform="matrix(1,0,0,1,23.96,457.25)">
                        <text x="91px" y="213.923px" style="font-family:'ArialMT', 'Arial', sans-serif;font-size:20.833px;">Unicode <tspan x="172.075px 185.971px " y="213.923px 213.923px ">Ab</tspan>stract</text>
                        <text x="91px" y="235.438px" style="font-family:'ArialMT', 'Arial', sans-serif;font-size:20.833px;">Characters</text>
                    </g>
                </g>
            </g>
            <g transform="matrix(0.923858,0,0,0.923858,231.132,9.51523)">
                <rect x="422" y="386" width="394" height="371" style="fill:rgb(0,255,0);"/>
            </g>
            <g transform="matrix(0.637056,0,0,0.685573,408.662,171.897)">
                <rect x="422" y="386" width="394" height="371" style="fill:rgb(43,255,253);"/>
            </g>
            <g transform="matrix(0.540609,0,0,0.453767,468.363,324.374)">
                <rect x="422" y="386" width="394" height="371" style="fill:rgb(235,179,255);"/>
            </g>
            <g transform="matrix(1,0,0,1,633.299,185.938)">
                <text x="91px" y="213.923px" style="font-family:'ArialMT', 'Arial', sans-serif;font-size:20.833px;">Unicode Space</text>
            </g>
            <g transform="matrix(1,0,0,1,643.799,264.938)">
                <text x="91px" y="213.923px" style="font-family:'ArialMT', 'Arial', sans-serif;font-size:20.833px;">Scalar V<tspan x="168.189px 179.776px " y="213.923px 213.923px ">al</tspan>ues</text>
            </g>
            <g transform="matrix(1,0,0,1,616.299,344.938)">
                <text x="91px" y="213.923px" style="font-family:'ArialMT', 'Arial', sans-serif;font-size:20.833px;">Encoded Characters</text>
            </g>
            <g transform="matrix(1,0,0,1,284.878,292.903)">
                <text x="91px" y="213.923px" style="font-family:'ArialMT', 'Arial', sans-serif;font-size:20.833px;">Unicode Database</text>
            </g>
            <g transform="matrix(1,0,0,1,177.878,164.903)">
                <text x="91px" y="219.878px" style="font-family:'Arial-ItalicMT', 'Arial', sans-serif;font-style:italic;font-size:29.167px;">Character Encoding Map</text>
            </g>
            <g transform="matrix(1,0,0,1,227.351,339.5)">
                <text x="91px" y="213.923px" style="font-family:'ArialMT', 'Arial', sans-serif;font-size:20.833px;">Second Field</text>
            </g>
            <g transform="matrix(1,0,0,1,430.404,339.5)">
                <text x="91px" y="213.923px" style="font-family:'ArialMT', 'Arial', sans-serif;font-size:20.833px;">First Field</text>
            </g>
            <g transform="matrix(1,0,0,1,7,-85)">
                <g transform="matrix(6.00514e-17,0.85,-0.416434,4.85993e-18,659.986,363.199)">
                    <path d="M316,364L326,382L306,382L316,364Z" style="fill:rgb(0,0,254);stroke:black;stroke-width:1.49px;"/>
                </g>
                <g transform="matrix(-6.00514e-17,0.85,0.416434,4.85993e-18,287.327,363.199)">
                    <path d="M316,364L326,382L306,382L316,364Z" style="fill:rgb(0,0,254);stroke:black;stroke-width:1.49px;"/>
                </g>
                <g transform="matrix(0.492647,-1.23459e-15,6.7754e-17,0.0769231,373.227,602.991)">
                    <rect x="138" y="368" width="136" height="13" style="fill:rgb(0,0,254);stroke:black;stroke-width:2.84px;"/>
                </g>
            </g>
            <g transform="matrix(1.31038,0,0,1,-20.1594,-229.25)">
                <g transform="matrix(8.84563e-17,1,-1.41643,6.245e-17,1137.91,438.75)">
                    <path d="M316,364L326,382L306,382L316,364Z" style="fill:rgb(0,0,254);stroke:black;stroke-width:0.67px;"/>
                </g>
                <g transform="matrix(-8.84563e-17,1,1.41643,6.245e-17,-379.751,438.75)">
                    <path d="M316,364L326,382L306,382L316,364Z" style="fill:rgb(0,0,254);stroke:black;stroke-width:0.67px;"/>
                </g>
                <g transform="matrix(3.31909,-2.46918e-15,4.56477e-16,0.153846,-304.361,697.135)">
                    <rect x="138" y="368" width="136" height="13" style="fill:rgb(0,0,254);stroke:black;stroke-width:0.32px;"/>
                </g>
            </g>
        </g>
    </g>
</svg>
