<?xml version="1.0" encoding="UTF-8" standalone="no"?>
<!DOCTYPE svg PUBLIC "-//W3C//DTD SVG 1.1//EN" "http://www.w3.org/Graphics/SVG/1.1/DTD/svg11.dtd">
<svg width="100%" height="100%" viewBox="0 0 1054 464" version="1.1" xmlns="http://www.w3.org/2000/svg" xmlns:xlink="http://www.w3.org/1999/xlink" xml:space="preserve" xmlns:serif="http://www.serif.com/" style="fill-rule:evenodd;clip-rule:evenodd;stroke-linecap:round;stroke-linejoin:round;stroke-miterlimit:1.5;">
    <g transform="matrix(1,0,0,1,-63.1973,-114.756)">
        <g>
            <g transform="matrix(4.28626e-17,0.7,-1.73116,1.06003e-16,1207.67,96.1125)">
                <rect x="171" y="54" width="480" height="584" style="fill:rgb(255,255,190);stroke:black;stroke-width:3.03px;"/>
            </g>
            <g transform="matrix(1,0,0,1,362.312,0)">
                <g transform="matrix(3.36778e-17,0.55,-0.696517,4.26494e-17,853.103,75.2625)">
                    <rect x="261" y="254" width="160" height="201" style="fill:rgb(218,113,255);"/>
                </g>
                <g transform="matrix(3.36778e-17,0.55,-0.303483,1.85829e-17,753.272,274.262)">
                    <rect x="261" y="254" width="160" height="201" style="fill:rgb(0,255,92);"/>
                </g>
                <g transform="matrix(4.24799e-17,0.69375,-0.915423,5.60535e-17,908.705,125.744)">
                    <rect x="261" y="254" width="160" height="201" style="fill:rgb(0,255,255);"/>
                </g>
            </g>
            <g transform="matrix(3.81301e-17,0.622712,-1.09846,6.7261e-17,1167.46,113.537)">
                <path d="M172,284L699,284" style="fill:none;stroke:rgb(182,0,0);stroke-width:2.24px;stroke-dasharray:2.24,2.24;"/>
            </g>
            <g transform="matrix(3.81301e-17,0.622712,-1.09846,6.7261e-17,1351.46,112.706)">
                <path d="M172,284L699,284" style="fill:none;stroke:rgb(182,0,0);stroke-width:2.24px;stroke-dasharray:2.24,2.24;"/>
            </g>
            <g transform="matrix(1,0,0,1,75.5,308.047)">
                <text x="827px" y="270.326px" style="font-family:'ArialMT', 'Arial', sans-serif;font-size:20px;fill:rgb(0,0,255);">Flex <tspan x="869.236px 882.576px " y="270.326px 270.326px ">Ar</tspan>ea</text>
            </g>
            <g transform="matrix(1,0,0,1,3.3125,0)">
                <g transform="matrix(3.36778e-17,0.55,-0.696517,4.26494e-17,492.103,75.2625)">
                    <rect x="261" y="254" width="160" height="201" style="fill:rgb(218,113,255);"/>
                </g>
                <g transform="matrix(3.36778e-17,0.55,-0.303483,1.85829e-17,313.272,274.262)">
                    <rect x="261" y="254" width="160" height="201" style="fill:rgb(0,255,92);"/>
                </g>
                <g transform="matrix(4.24799e-17,0.69375,-0.915423,5.60535e-17,591.705,125.744)">
                    <rect x="261" y="254" width="160" height="201" style="fill:rgb(0,255,255);"/>
                </g>
            </g>
            <g transform="matrix(3.82266e-17,0.624288,-1.09846,6.7261e-17,491.461,113.435)">
                <path d="M172,284L699,284" style="fill:none;stroke:rgb(182,0,0);stroke-width:2.24px;stroke-dasharray:2.24,2.24;"/>
            </g>
            <g transform="matrix(3.82266e-17,0.624288,-1.09846,6.7261e-17,675.461,112.435)">
                <path d="M172,284L699,284" style="fill:none;stroke:rgb(182,0,0);stroke-width:2.24px;stroke-dasharray:2.24,2.24;"/>
            </g>
            <g transform="matrix(1,0,0,1,-600.5,308.047)">
                <text x="827px" y="270.326px" style="font-family:'ArialMT', 'Arial', sans-serif;font-size:20px;fill:rgb(0,0,255);">Flex <tspan x="869.236px 882.576px " y="270.326px 270.326px ">Ar</tspan>ea</text>
            </g>
            <g transform="matrix(1,0,0,1,316.312,1)">
                <g transform="matrix(3.36778e-17,0.55,-0.696517,4.26494e-17,539.103,74.2625)">
                    <rect x="261" y="254" width="160" height="201" style="fill:rgb(218,113,255);"/>
                </g>
                <g transform="matrix(3.36778e-17,0.55,-0.303483,1.85829e-17,399.772,273.262)">
                    <rect x="261" y="254" width="160" height="201" style="fill:rgb(0,255,92);"/>
                </g>
                <g transform="matrix(4.24799e-17,0.69375,-0.915423,5.60535e-17,616.705,124.744)">
                    <rect x="261" y="254" width="160" height="201" style="fill:rgb(0,255,255);"/>
                </g>
            </g>
            <g transform="matrix(3.81301e-17,0.622712,-1.09846,6.7261e-17,829.461,113.537)">
                <path d="M172,284L699,284" style="fill:none;stroke:rgb(182,0,0);stroke-width:2.24px;stroke-dasharray:2.24,2.24;"/>
            </g>
            <g transform="matrix(3.81301e-17,0.622712,-1.09846,6.7261e-17,1013.46,112.706)">
                <path d="M172,284L699,284" style="fill:none;stroke:rgb(182,0,0);stroke-width:2.24px;stroke-dasharray:2.24,2.24;"/>
            </g>
            <g transform="matrix(1,0,0,1,-262.5,308.047)">
                <text x="827px" y="270.326px" style="font-family:'ArialMT', 'Arial', sans-serif;font-size:20px;fill:rgb(0,0,255);">Flex <tspan x="869.236px 882.576px " y="270.326px 270.326px ">Ar</tspan>ea</text>
            </g>
            <g transform="matrix(1,0,0,1,15,0)">
                <g transform="matrix(6.12323e-17,-1,1,6.12323e-17,-152.812,1260.94)">
                    <text x="823px" y="215.326px" style="font-family:'ArialMT', 'Arial', sans-serif;font-size:20px;fill:rgb(196,0,255);">main-axis</text>
                </g>
                <g transform="matrix(5.92758e-17,0.968046,-1,6.12323e-17,219.188,112.359)">
                    <g transform="matrix(4.49037e-17,-0.733333,-0.733333,-4.49037e-17,664.25,804.4)">
                        <path d="M898.5,285L906,300L891,300L898.5,285Z" style="fill:rgb(208,0,255);stroke:rgb(182,0,255);stroke-width:2.77px;"/>
                    </g>
                    <g transform="matrix(1,0,0,1,0,-0.5)">
                        <path d="M111,146L445,146" style="fill:none;stroke:rgb(182,0,255);stroke-width:2.03px;"/>
                    </g>
                </g>
            </g>
            <g transform="matrix(1,0,0,1,-260.312,-18.5625)">
                <text x="823px" y="215.326px" style="font-family:'ArialMT', 'Arial', sans-serif;font-size:20px;fill:rgb(196,0,255);">cross-axis</text>
            </g>
            <g>
                <g transform="matrix(4.39906e-17,-0.733333,-0.718422,-4.49037e-17,1320.06,860.338)">
                    <path d="M898.5,285L906,300L891,300L898.5,285Z" style="fill:rgb(208,0,255);stroke:rgb(182,0,255);stroke-width:2.76px;"/>
                </g>
                <g transform="matrix(2.99763,-1.65536e-16,-2.93603e-16,1,-227.674,55.4375)">
                    <path d="M111,146L445,146" style="fill:none;stroke:rgb(182,0,255);stroke-width:0.9px;"/>
                </g>
            </g>
            <g transform="matrix(1,0,0,1,-708.812,-86)">
                <text x="823px" y="215.316px" style="font-family:'Arial-BoldMT', 'Arial', sans-serif;font-weight:700;font-size:20px;fill:rgb(0,150,0);">align-content set (to any of its values)</text>
                <text x="823px" y="247.971px" style="font-family:'Arial-BoldMT', 'Arial', sans-serif;font-weight:700;font-size:20px;fill:rgb(0,0,255);">ﬂex areas are the new alignment boxes</text>
            </g>
            <g transform="matrix(1,0,0,1,-199.812,-86)">
                <text x="823px" y="215.316px" style="font-family:'Arial-BoldMT', 'Arial', sans-serif;font-weight:700;font-size:20px;fill:rgb(0,150,0);">In this case align - content set is space - around</text>
            </g>
        </g>
    </g>
</svg>
