<?xml version="1.0" encoding="UTF-8" standalone="no"?>
<!DOCTYPE svg PUBLIC "-//W3C//DTD SVG 1.1//EN" "http://www.w3.org/Graphics/SVG/1.1/DTD/svg11.dtd">
<svg width="100%" height="100%" viewBox="0 0 1221 762" version="1.1" xmlns="http://www.w3.org/2000/svg" xmlns:xlink="http://www.w3.org/1999/xlink" xml:space="preserve" xmlns:serif="http://www.serif.com/" style="fill-rule:evenodd;clip-rule:evenodd;stroke-linecap:round;stroke-linejoin:round;stroke-miterlimit:1.5;">
    <g transform="matrix(1,0,0,1,-33.8301,-6.09921)">
        <g>
            <g transform="matrix(1,0,0,1,-6,-28)">
                <g transform="matrix(0.555556,0,0,0.456621,85.5714,127.282)">
                    <rect x="171" y="54" width="480" height="584" style="fill:rgb(255,255,190);stroke:black;stroke-width:7.87px;"/>
                </g>
                <g transform="matrix(0.844854,0,0,0.793651,-92.5212,-76.6984)">
                    <path d="M172,284L699,284" style="fill:none;stroke:rgb(182,0,0);stroke-width:2.44px;stroke-dasharray:2.44,2.44;"/>
                </g>
                <g transform="matrix(1,0,0,1,-784,-103.73)">
                    <text x="827px" y="270.316px" style="font-family:'Arial-BoldMT', 'Arial', sans-serif;font-weight:700;font-size:20px;fill:rgb(182,0,0);">cross - start</text>
                </g>
                <g transform="matrix(7.41159e-18,0.772567,0.78751,-1.18537e-16,-47.0498,-89.9371)">
                    <path d="M172,284L699,284" style="fill:none;stroke:rgb(182,0,0);stroke-width:2.56px;stroke-dasharray:2.56,2.56;"/>
                </g>
                <g transform="matrix(6.12323e-17,-1,1,6.12323e-17,-73.4444,959.032)">
                    <text x="827px" y="267.453px" style="font-family:'Arial-BoldMT', 'Arial', sans-serif;font-weight:700;font-size:16px;fill:rgb(182,0,0);">main - start</text>
                </g>
                <g transform="matrix(4.73061e-17,-0.772567,0.76387,4.67736e-17,233.672,582.969)">
                    <path d="M172,284L699,284" style="fill:none;stroke:rgb(182,0,0);stroke-width:2.6px;stroke-dasharray:2.6,2.6;"/>
                </g>
                <g transform="matrix(0.844854,0,0,0.793651,-92.5212,196.317)">
                    <path d="M172,284L699,284" style="fill:none;stroke:rgb(182,0,0);stroke-width:2.44px;stroke-dasharray:2.44,2.44;"/>
                </g>
                <g transform="matrix(0.605403,0,0,0.793651,74.8547,62.9841)">
                    <path d="M172,284L699,284" style="fill:none;stroke:rgb(182,0,0);stroke-width:2.83px;stroke-dasharray:2.83,2.83;"/>
                </g>
                <g transform="matrix(0.793651,0,0,0.793651,27.3968,16.1587)">
                    <g transform="matrix(1.26,0,0,1.26,-720.855,-114.26)">
                        <text x="823px" y="215.316px" style="font-family:'Arial-BoldMT', 'Arial', sans-serif;font-weight:700;font-size:20px;">main -</text>
                        <text x="823px" y="235.971px" style="font-family:'Arial-BoldMT', 'Arial', sans-serif;font-weight:700;font-size:20px;">axis</text>
                    </g>
                    <g transform="matrix(0.985476,0,0,0.985476,79.6122,14.1932)">
                        <g transform="matrix(4.49037e-17,-0.733333,-0.733333,-4.49037e-17,664.25,804.4)">
                            <path d="M898.5,285L906,300L891,300L898.5,285Z" style="stroke:black;stroke-width:3.49px;"/>
                        </g>
                        <g transform="matrix(1,0,0,1,0,-0.5)">
                            <path d="M111,146L445,146" style="fill:none;stroke:black;stroke-width:2.56px;"/>
                        </g>
                    </g>
                </g>
                <g transform="matrix(6.12323e-17,-1,1,6.12323e-17,-50.0913,1150.67)">
                    <text x="823px" y="215.316px" style="font-family:'Arial-BoldMT', 'Arial', sans-serif;font-weight:700;font-size:20px;">cross -</text>
                    <text x="823px" y="235.971px" style="font-family:'Arial-BoldMT', 'Arial', sans-serif;font-weight:700;font-size:20px;">axis</text>
                </g>
                <g transform="matrix(0.793651,0,0,0.793651,-130.54,-38.6032)">
                    <g transform="matrix(-5.99872e-17,0.979666,1,6.12323e-17,230.625,133.653)">
                        <path d="M111,146L445,146" style="fill:none;stroke:black;stroke-width:2.55px;"/>
                    </g>
                    <g transform="matrix(-0.733333,-9.13075e-19,-9.13075e-19,-0.718422,1035.53,779.875)">
                        <path d="M898.5,285L906,300L891,300L898.5,285Z" style="stroke:black;stroke-width:3.47px;"/>
                    </g>
                </g>
                <g transform="matrix(0.793651,0,0,0.793651,-132.921,-194.952)">
                    <g transform="matrix(1,0,0,1,-368,133)">
                        <g transform="matrix(0.55,0,0,0.363184,824.45,384.618)">
                            <rect x="261" y="254" width="160" height="201" style="fill:rgb(125,203,233);"/>
                        </g>
                        <g transform="matrix(1.26,0,0,1.26,58.42,-321.512)">
                            <text x="733px" y="654.191px" style="font-family:'ArialMT', 'Arial', sans-serif;font-size:24px;">6</text>
                        </g>
                    </g>
                    <g transform="matrix(1,0,0,1,-368,133)">
                        <g transform="matrix(0.55,0,0,0.427861,736.45,368.19)">
                            <rect x="261" y="254" width="160" height="201" style="fill:rgb(200,133,85);"/>
                        </g>
                        <g transform="matrix(1.26,0,0,1.26,-29.58,-321.62)">
                            <text x="733px" y="654.191px" style="font-family:'ArialMT', 'Arial', sans-serif;font-size:24px;">5</text>
                        </g>
                    </g>
                    <g transform="matrix(1,0,0,1,-366,132)">
                        <g transform="matrix(0.725,0,0,0.393035,572.775,378.036)">
                            <rect x="261" y="254" width="160" height="201" style="fill:rgb(193,162,130);"/>
                        </g>
                        <g transform="matrix(1.26,0,0,1.26,-149.58,-320.62)">
                            <text x="733px" y="654.191px" style="font-family:'ArialMT', 'Arial', sans-serif;font-size:24px;">4</text>
                        </g>
                    </g>
                </g>
                <g transform="matrix(0.793651,0,0,0.793651,-6.73016,-40.9841)">
                    <g transform="matrix(1,0,0,1,-386,-81)">
                        <g transform="matrix(0.55,0,0,0.472637,662.442,207.2)">
                            <rect x="261" y="254" width="160" height="201" style="fill:rgb(255,172,255);"/>
                        </g>
                        <g transform="matrix(1.26,0,0,1.26,300.92,-452.441)">
                            <text x="408px" y="641.191px" style="font-family:'ArialMT', 'Arial', sans-serif;font-size:24px;">3</text>
                        </g>
                    </g>
                    <g transform="matrix(1,0,0,1,-452,-20)">
                        <g transform="matrix(0.4125,0,0,0.303483,698.33,189.165)">
                            <rect x="261" y="254" width="160" height="201" style="fill:rgb(151,239,148);"/>
                        </g>
                        <g transform="matrix(1.26,0,0,1.26,300.92,-509.865)">
                            <text x="408px" y="641.191px" style="font-family:'ArialMT', 'Arial', sans-serif;font-size:24px;">2</text>
                        </g>
                    </g>
                    <g transform="matrix(1,0,0,1,-568,64)">
                        <g transform="matrix(0.725,0,0,0.41791,616.767,76.1007)">
                            <rect x="261" y="254" width="160" height="201" style="fill:rgb(185,187,255);"/>
                        </g>
                        <g transform="matrix(1.26,0,0,1.26,300.92,-596.805)">
                            <text x="408px" y="641.191px" style="font-family:'ArialMT', 'Arial', sans-serif;font-size:24px;">1</text>
                        </g>
                    </g>
                </g>
                <g transform="matrix(0.555556,0,0,0.456621,85.5714,127.282)">
                    <rect x="171" y="54" width="480" height="584" style="fill:rgb(255,255,190);stroke:black;stroke-width:7.87px;"/>
                </g>
                <g transform="matrix(0.844854,0,0,0.793651,-92.5212,-76.6984)">
                    <path d="M172,284L699,284" style="fill:none;stroke:rgb(182,0,0);stroke-width:2.44px;stroke-dasharray:2.44,2.44;"/>
                </g>
                <g transform="matrix(1,0,0,1,-788,141.27)">
                    <text x="827px" y="270.316px" style="font-family:'Arial-BoldMT', 'Arial', sans-serif;font-weight:700;font-size:20px;fill:rgb(182,0,0);">cross - start</text>
                </g>
                <g transform="matrix(7.41159e-18,0.772567,0.78751,-1.18537e-16,-47.0498,-89.9371)">
                    <path d="M172,284L699,284" style="fill:none;stroke:rgb(182,0,0);stroke-width:2.56px;stroke-dasharray:2.56,2.56;"/>
                </g>
                <g transform="matrix(6.12323e-17,-1,1,6.12323e-17,176.556,952.683)">
                    <text x="827px" y="267.453px" style="font-family:'Arial-BoldMT', 'Arial', sans-serif;font-weight:700;font-size:16px;fill:rgb(182,0,0);">main - end</text>
                </g>
                <g transform="matrix(4.73061e-17,-0.772567,0.76387,4.67736e-17,233.672,582.969)">
                    <path d="M172,284L699,284" style="fill:none;stroke:rgb(182,0,0);stroke-width:2.6px;stroke-dasharray:2.6,2.6;"/>
                </g>
                <g transform="matrix(0.844854,0,0,0.793651,-92.5212,196.317)">
                    <path d="M172,284L699,284" style="fill:none;stroke:rgb(182,0,0);stroke-width:2.44px;stroke-dasharray:2.44,2.44;"/>
                </g>
                <g transform="matrix(0.59185,0,0,0.793651,83.5352,62.9841)">
                    <path d="M172,284L699,284" style="fill:none;stroke:rgb(182,0,0);stroke-width:2.86px;stroke-dasharray:2.86,2.86;"/>
                </g>
                <g transform="matrix(0.793651,0,0,0.793651,27.3968,16.1587)">
                    <g transform="matrix(1.26,0,0,1.26,-720.855,-114.26)">
                        <text x="823px" y="215.316px" style="font-family:'Arial-BoldMT', 'Arial', sans-serif;font-weight:700;font-size:20px;">main - axis</text>
                    </g>
                    <g transform="matrix(0.985476,0,0,0.985476,79.6122,14.1932)">
                        <g transform="matrix(4.49037e-17,-0.733333,-0.733333,-4.49037e-17,664.25,804.4)">
                            <path d="M898.5,285L906,300L891,300L898.5,285Z" style="stroke:black;stroke-width:3.49px;"/>
                        </g>
                        <g transform="matrix(1,0,0,1,0,-0.5)">
                            <path d="M111,146L445,146" style="fill:none;stroke:black;stroke-width:2.56px;"/>
                        </g>
                    </g>
                </g>
                <g transform="matrix(6.12323e-17,-1,1,6.12323e-17,-50.0913,1150.67)">
                    <text x="823px" y="215.316px" style="font-family:'Arial-BoldMT', 'Arial', sans-serif;font-weight:700;font-size:20px;">cross - axis</text>
                </g>
                <g transform="matrix(0.793651,0,0,0.793651,-130.54,-38.6032)">
                    <g transform="matrix(-5.99872e-17,0.979666,1,6.12323e-17,230.625,133.653)">
                        <path d="M111,146L445,146" style="fill:none;stroke:black;stroke-width:2.55px;"/>
                    </g>
                    <g transform="matrix(-0.733333,-9.13075e-19,-9.13075e-19,-0.718422,1035.53,779.875)">
                        <path d="M898.5,285L906,300L891,300L898.5,285Z" style="stroke:black;stroke-width:3.47px;"/>
                    </g>
                </g>
                <g transform="matrix(0.793651,0,0,0.793651,-9.90476,-14.2913)">
                    <g transform="matrix(1,0,0,1,-483,-48)">
                        <g transform="matrix(0.55,0,0,0.363184,824.45,384.618)">
                            <rect x="261" y="254" width="160" height="201" style="fill:rgb(125,203,233);"/>
                        </g>
                        <g transform="matrix(1.26,0,0,1.26,58.42,-321.512)">
                            <text x="733px" y="654.191px" style="font-family:'ArialMT', 'Arial', sans-serif;font-size:24px;">6</text>
                        </g>
                    </g>
                    <g transform="matrix(1,0,0,1,0,17.5)">
                        <g transform="matrix(0.55,0,0,0.60199,233.45,234.462)">
                            <rect x="261" y="254" width="160" height="201" style="fill:rgb(200,133,85);"/>
                        </g>
                        <g transform="matrix(1.26,0,0,1.26,-537.58,-406.12)">
                            <text x="733px" y="654.191px" style="font-family:'ArialMT', 'Arial', sans-serif;font-size:24px;">5</text>
                        </g>
                    </g>
                    <g transform="matrix(1,0,0,1,-521,-52)">
                        <g transform="matrix(0.725,0,0,0.393035,572.775,378.036)">
                            <rect x="261" y="254" width="160" height="201" style="fill:rgb(193,162,130);"/>
                        </g>
                        <g transform="matrix(1.26,0,0,1.26,-149.58,-320.62)">
                            <text x="733px" y="654.191px" style="font-family:'ArialMT', 'Arial', sans-serif;font-size:24px;">4</text>
                        </g>
                    </g>
                </g>
                <g transform="matrix(0.793651,0,0,0.793651,-9.90476,47.7063)">
                    <g transform="matrix(1,0,0,1,-320,-159.5)">
                        <g transform="matrix(0.55,0,0,0.472637,662.442,207.2)">
                            <rect x="261" y="254" width="160" height="201" style="fill:rgb(255,172,255);"/>
                        </g>
                        <g transform="matrix(1.26,0,0,1.26,300.92,-452.441)">
                            <text x="408px" y="641.191px" style="font-family:'ArialMT', 'Arial', sans-serif;font-size:24px;">3</text>
                        </g>
                    </g>
                    <g transform="matrix(1,0,0,1,-420,-81.5)">
                        <g transform="matrix(0.4125,0,0,0.303483,698.33,189.165)">
                            <rect x="261" y="254" width="160" height="201" style="fill:rgb(151,239,148);"/>
                        </g>
                        <g transform="matrix(1.26,0,0,1.26,300.92,-509.865)">
                            <text x="408px" y="641.191px" style="font-family:'ArialMT', 'Arial', sans-serif;font-size:24px;">2</text>
                        </g>
                    </g>
                    <g transform="matrix(1,0,0,1,-564,-9)">
                        <g transform="matrix(0.725,0,0,0.41791,616.767,76.1007)">
                            <rect x="261" y="254" width="160" height="201" style="fill:rgb(185,187,255);"/>
                        </g>
                        <g transform="matrix(1.26,0,0,1.26,300.92,-596.805)">
                            <text x="408px" y="641.191px" style="font-family:'ArialMT', 'Arial', sans-serif;font-size:24px;">1</text>
                        </g>
                    </g>
                </g>
                <g transform="matrix(1,0,0,1,56.9365,-422.111)">
                    <text x="403px" y="636.326px" style="font-family:'ArialMT', 'Arial', sans-serif;font-size:20px;fill:rgb(0,0,255);stroke:rgb(0,0,255);stroke-width:1px;stroke-linecap:butt;stroke-miterlimit:2;">Alignment</text>
                    <text x="430.783px" y="656.98px" style="font-family:'ArialMT', 'Arial', sans-serif;font-size:20px;fill:rgb(0,0,255);stroke:rgb(0,0,255);stroke-width:1px;stroke-linecap:butt;stroke-miterlimit:2;">Box</text>
                </g>
                <g transform="matrix(1,0,0,1,53.7619,-285.603)">
                    <text x="403px" y="636.326px" style="font-family:'ArialMT', 'Arial', sans-serif;font-size:20px;fill:rgb(0,0,255);stroke:rgb(0,0,255);stroke-width:1px;stroke-linecap:butt;stroke-miterlimit:2;">Alignment</text>
                    <text x="430.783px" y="656.98px" style="font-family:'ArialMT', 'Arial', sans-serif;font-size:20px;fill:rgb(0,0,255);stroke:rgb(0,0,255);stroke-width:1px;stroke-linecap:butt;stroke-miterlimit:2;">Box</text>
                </g>
            </g>
            <g transform="matrix(1,0,0,1,63,-10.6508)">
                <g transform="matrix(1.06452,0,0,1,392.903,-133)">
                    <path d="M172,284L699,284" style="fill:none;stroke:rgb(182,0,0);stroke-width:1.94px;stroke-dasharray:1.94,1.94;"/>
                </g>
                <g transform="matrix(1,0,0,1,-252,-100.5)">
                    <text x="827px" y="270.316px" style="font-family:'Arial-BoldMT', 'Arial', sans-serif;font-weight:700;font-size:20px;fill:rgb(182,0,0);">cross - start</text>
                </g>
                <g transform="matrix(6.12323e-17,-1,1,6.12323e-17,483.5,957)">
                    <text x="827px" y="270.316px" style="font-family:'Arial-BoldMT', 'Arial', sans-serif;font-weight:700;font-size:20px;fill:rgb(182,0,0);">main - start</text>
                </g>
                <g transform="matrix(6.12323e-17,-1,1,6.12323e-17,798.5,949)">
                    <text x="827px" y="270.316px" style="font-family:'Arial-BoldMT', 'Arial', sans-serif;font-weight:700;font-size:20px;fill:rgb(182,0,0);">main - end</text>
                </g>
                <g transform="matrix(4.07828e-17,-0.666034,0.962477,5.89347e-17,803.907,483.558)">
                    <path d="M172,284L699,284" style="fill:none;stroke:rgb(182,0,0);stroke-width:2.42px;stroke-dasharray:2.42,2.42;"/>
                </g>
                <g transform="matrix(1.06452,0,0,1,392.903,43)">
                    <path d="M172,284L699,284" style="fill:none;stroke:rgb(182,0,0);stroke-width:1.94px;stroke-dasharray:1.94,1.94;"/>
                </g>
                <g transform="matrix(1,0,0,1,501,-88)">
                    <g transform="matrix(1,0,0,1,-386,-81)">
                        <g transform="matrix(0.55,0,0,0.472637,662.442,207.2)">
                            <rect x="261" y="254" width="160" height="201" style="fill:rgb(255,172,255);"/>
                        </g>
                        <g transform="matrix(1,0,0,1,407,-290.201)">
                            <text x="408px" y="641.191px" style="font-family:'ArialMT', 'Arial', sans-serif;font-size:24px;">3</text>
                        </g>
                    </g>
                    <g transform="matrix(1,0,0,1,-452,-20)">
                        <g transform="matrix(0.4125,0,0,0.303483,698.33,189.165)">
                            <rect x="261" y="254" width="160" height="201" style="fill:rgb(151,239,148);"/>
                        </g>
                        <g transform="matrix(1,0,0,1,407,-347.625)">
                            <text x="408px" y="641.191px" style="font-family:'ArialMT', 'Arial', sans-serif;font-size:24px;">2</text>
                        </g>
                    </g>
                    <g transform="matrix(1,0,0,1,-568,64)">
                        <g transform="matrix(0.725,0,0,0.41791,616.767,76.1007)">
                            <rect x="261" y="254" width="160" height="201" style="fill:rgb(185,187,255);"/>
                        </g>
                        <g transform="matrix(1,0,0,1,407,-434.565)">
                            <text x="408px" y="641.191px" style="font-family:'ArialMT', 'Arial', sans-serif;font-size:24px;">1</text>
                        </g>
                    </g>
                </g>
                <g transform="matrix(0.7,0,0,0.289384,617.3,139.457)">
                    <rect x="171" y="54" width="480" height="584" style="fill:rgb(255,255,190);stroke:black;stroke-width:7.47px;"/>
                </g>
                <g transform="matrix(1.06452,0,0,1,392.903,-133)">
                    <path d="M172,284L699,284" style="fill:none;stroke:rgb(182,0,0);stroke-width:1.94px;stroke-dasharray:1.94,1.94;"/>
                </g>
                <g transform="matrix(1,0,0,1,-252,-100.5)">
                    <text x="827px" y="270.316px" style="font-family:'Arial-BoldMT', 'Arial', sans-serif;font-weight:700;font-size:20px;fill:rgb(182,0,0);">cross - start</text>
                </g>
                <g transform="matrix(2.81615e-17,0.666034,0.992263,-8.30043e-17,450.197,-96.8079)">
                    <path d="M172,284L699,284" style="fill:none;stroke:rgb(182,0,0);stroke-width:2.37px;stroke-dasharray:2.37,2.37;"/>
                </g>
                <g transform="matrix(6.12323e-17,-1,1,6.12323e-17,483.5,957)">
                    <text x="827px" y="270.316px" style="font-family:'Arial-BoldMT', 'Arial', sans-serif;font-weight:700;font-size:20px;fill:rgb(182,0,0);">main - start</text>
                </g>
                <g transform="matrix(6.12323e-17,-1,1,6.12323e-17,798.5,949)">
                    <text x="827px" y="270.316px" style="font-family:'Arial-BoldMT', 'Arial', sans-serif;font-weight:700;font-size:20px;fill:rgb(182,0,0);">main - end</text>
                </g>
                <g transform="matrix(1.06452,0,0,1,392.903,43)">
                    <path d="M172,284L699,284" style="fill:none;stroke:rgb(182,0,0);stroke-width:1.94px;stroke-dasharray:1.94,1.94;"/>
                </g>
                <g transform="matrix(1,0,0,1,-251,51.5)">
                    <text x="827px" y="270.316px" style="font-family:'Arial-BoldMT', 'Arial', sans-serif;font-weight:700;font-size:20px;fill:rgb(182,0,0);">cross - end</text>
                </g>
                <g transform="matrix(1,0,0,1,-21,-48.25)">
                    <g transform="matrix(1,0,0,1,198,-87.5)">
                        <g transform="matrix(0.55,0,0,0.472637,662.442,207.2)">
                            <rect x="261" y="254" width="160" height="201" style="fill:rgb(255,172,255);"/>
                        </g>
                        <g transform="matrix(1,0,0,1,407,-290.201)">
                            <text x="408px" y="641.191px" style="font-family:'ArialMT', 'Arial', sans-serif;font-size:24px;">3</text>
                        </g>
                    </g>
                    <g transform="matrix(1,0,0,1,98,-9.5)">
                        <g transform="matrix(0.4125,0,0,0.303483,698.33,189.165)">
                            <rect x="261" y="254" width="160" height="201" style="fill:rgb(151,239,148);"/>
                        </g>
                        <g transform="matrix(1,0,0,1,407,-347.625)">
                            <text x="408px" y="641.191px" style="font-family:'ArialMT', 'Arial', sans-serif;font-size:24px;">2</text>
                        </g>
                    </g>
                    <g transform="matrix(1,0,0,1,-46,63)">
                        <g transform="matrix(0.725,0,0,0.41791,616.767,76.1007)">
                            <rect x="261" y="254" width="160" height="201" style="fill:rgb(185,187,255);"/>
                        </g>
                        <g transform="matrix(1,0,0,1,407,-434.565)">
                            <text x="408px" y="641.191px" style="font-family:'ArialMT', 'Arial', sans-serif;font-size:24px;">1</text>
                        </g>
                    </g>
                </g>
                <g transform="matrix(1,0,0,1,681,-406.5)">
                    <text x="403px" y="639.191px" style="font-family:'ArialMT', 'Arial', sans-serif;font-size:24px;fill:rgb(0,0,255);stroke:rgb(0,0,255);stroke-width:1px;stroke-linecap:butt;stroke-miterlimit:2;">Alignment</text>
                    <text x="436.34px" y="663.977px" style="font-family:'ArialMT', 'Arial', sans-serif;font-size:24px;fill:rgb(0,0,255);stroke:rgb(0,0,255);stroke-width:1px;stroke-linecap:butt;stroke-miterlimit:2;">Box</text>
                </g>
            </g>
            <g transform="matrix(1,0,0,1,80,7.75)">
                <g transform="matrix(1.06452,0,0,1,375.903,277)">
                    <path d="M172,284L699,284" style="fill:none;stroke:rgb(182,0,0);stroke-width:1.94px;stroke-dasharray:1.94,1.94;"/>
                </g>
                <g transform="matrix(6.12323e-17,-1,1,6.12323e-17,464.5,1373)">
                    <text x="827px" y="270.316px" style="font-family:'Arial-BoldMT', 'Arial', sans-serif;font-weight:700;font-size:20px;fill:rgb(182,0,0);">main - start</text>
                </g>
                <g transform="matrix(6.12323e-17,-1,1,6.12323e-17,779.5,1381)">
                    <text x="827px" y="270.316px" style="font-family:'Arial-BoldMT', 'Arial', sans-serif;font-weight:700;font-size:20px;fill:rgb(182,0,0);">main - end</text>
                </g>
                <g transform="matrix(3.77619e-17,-0.616698,0.962477,5.89347e-17,781.907,865.072)">
                    <path d="M172,284L699,284" style="fill:none;stroke:rgb(182,0,0);stroke-width:2.47px;stroke-dasharray:2.47,2.47;"/>
                </g>
                <g transform="matrix(0.7,0,0,0.203767,598.3,550.08)">
                    <rect x="171" y="54" width="480" height="584" style="fill:rgb(255,255,190);stroke:black;stroke-width:7.76px;"/>
                </g>
                <g transform="matrix(1,0,0,1,-260,309.5)">
                    <text x="827px" y="270.316px" style="font-family:'Arial-BoldMT', 'Arial', sans-serif;font-weight:700;font-size:20px;fill:rgb(182,0,0);">cross - start</text>
                </g>
                <g transform="matrix(3.03691e-17,0.629981,0.992263,-7.52223e-17,433.197,318.393)">
                    <path d="M172,284L699,284" style="fill:none;stroke:rgb(182,0,0);stroke-width:2.41px;stroke-dasharray:2.41,2.41;"/>
                </g>
                <g transform="matrix(1.06452,0,0,1,375.903,398)">
                    <path d="M172,284L699,284" style="fill:none;stroke:rgb(182,0,0);stroke-width:1.94px;stroke-dasharray:1.94,1.94;"/>
                </g>
                <g transform="matrix(1,0,0,1,-251,401.5)">
                    <text x="827px" y="270.316px" style="font-family:'Arial-BoldMT', 'Arial', sans-serif;font-weight:700;font-size:20px;fill:rgb(182,0,0);">cross - end</text>
                </g>
                <g transform="matrix(1,0,0,1,0,-8)">
                    <g transform="matrix(1,0,0,1.2,160,178.3)">
                        <g transform="matrix(0.55,0,0,0.472637,662.442,207.2)">
                            <rect x="261" y="254" width="160" height="201" style="fill:rgb(255,172,255);"/>
                        </g>
                        <g transform="matrix(1,0,0,0.833333,407,-186.201)">
                            <text x="408px" y="641.191px" style="font-family:'ArialMT', 'Arial', sans-serif;font-size:24px;">3</text>
                        </g>
                    </g>
                    <g transform="matrix(1,0,0,1,60,331.25)">
                        <g transform="matrix(0.4125,0,0,0.303483,698.33,189.165)">
                            <rect x="261" y="254" width="160" height="201" style="fill:rgb(151,239,148);"/>
                        </g>
                        <g transform="matrix(1,0,0,1,407,-347.625)">
                            <text x="408px" y="641.191px" style="font-family:'ArialMT', 'Arial', sans-serif;font-size:24px;">2</text>
                        </g>
                    </g>
                    <g transform="matrix(1,0,0,1,-84,403.75)">
                        <g transform="matrix(0.725,0,0,0.41791,616.767,76.1007)">
                            <rect x="261" y="254" width="160" height="201" style="fill:rgb(185,187,255);"/>
                        </g>
                        <g transform="matrix(1,0,0,1,407,-434.565)">
                            <text x="408px" y="641.191px" style="font-family:'ArialMT', 'Arial', sans-serif;font-size:24px;">1</text>
                        </g>
                    </g>
                </g>
                <g transform="matrix(1,0,0,1,664,-16.5)">
                    <text x="403px" y="639.191px" style="font-family:'ArialMT', 'Arial', sans-serif;font-size:24px;fill:rgb(0,0,255);stroke:rgb(0,0,255);stroke-width:1px;stroke-linecap:butt;stroke-miterlimit:2;">Flex <tspan x="453.684px 469.691px " y="639.191px 639.191px ">Ar</tspan>ea</text>
                </g>
            </g>
            <g transform="matrix(1,0,0,1,53,29)">
                <g transform="matrix(0.590133,0,0,1,-94.5028,337)">
                    <path d="M172,284L699,284" style="fill:none;stroke:rgb(182,0,0);stroke-width:2.44px;stroke-dasharray:2.44,2.44;"/>
                </g>
                <g transform="matrix(6.12323e-17,-1,1,6.12323e-17,-92.5,1443)">
                    <text x="827px" y="270.316px" style="font-family:'Arial-BoldMT', 'Arial', sans-serif;font-weight:700;font-size:20px;fill:rgb(182,0,0);">main - start</text>
                </g>
                <g transform="matrix(6.12323e-17,-1,1,6.12323e-17,5.5,1442)">
                    <text x="827px" y="270.316px" style="font-family:'Arial-BoldMT', 'Arial', sans-serif;font-weight:700;font-size:20px;fill:rgb(182,0,0);">main - end</text>
                </g>
                <g transform="matrix(2.81181e-17,-0.459203,0.962477,5.89347e-17,5.90666,814.983)">
                    <path d="M172,284L699,284" style="fill:none;stroke:rgb(182,0,0);stroke-width:2.65px;stroke-dasharray:2.65,2.65;"/>
                </g>
                <g transform="matrix(1,0,0,1,-812,345.5)">
                    <text x="827px" y="270.316px" style="font-family:'Arial-BoldMT', 'Arial', sans-serif;font-weight:700;font-size:20px;fill:rgb(182,0,0);">cross - start</text>
                </g>
                <g transform="matrix(4.01291e-17,0.470588,0.992263,-4.08175e-17,-118.803,408.809)">
                    <path d="M172,284L699,284" style="fill:none;stroke:rgb(182,0,0);stroke-width:2.58px;stroke-dasharray:2.58,2.58;"/>
                </g>
                <g transform="matrix(0.588235,0,0,1,-94.1765,421)">
                    <path d="M172,284L699,284" style="fill:none;stroke:rgb(182,0,0);stroke-width:2.44px;stroke-dasharray:2.44,2.44;"/>
                </g>
                <g transform="matrix(1,0,0,1,-801,429.5)">
                    <text x="827px" y="270.316px" style="font-family:'Arial-BoldMT', 'Arial', sans-serif;font-weight:700;font-size:20px;fill:rgb(182,0,0);">cross - end</text>
                </g>
                <g transform="matrix(1,0,0,1,-643,438.75)">
                    <g transform="matrix(0.725,0,0,0.41791,616.767,76.1007)">
                        <rect x="261" y="254" width="160" height="201" style="fill:rgb(185,187,255);"/>
                    </g>
                    <g transform="matrix(1,0,0,1,407,-434.565)">
                        <text x="408px" y="641.191px" style="font-family:'ArialMT', 'Arial', sans-serif;font-size:24px;">1</text>
                    </g>
                </g>
            </g>
        </g>
    </g>
</svg>
