<?xml version="1.0" encoding="UTF-8" standalone="no"?>
<!DOCTYPE svg PUBLIC "-//W3C//DTD SVG 1.1//EN" "http://www.w3.org/Graphics/SVG/1.1/DTD/svg11.dtd">
<svg width="100%" height="100%" viewBox="0 0 425 283" version="1.1" xmlns="http://www.w3.org/2000/svg" xmlns:xlink="http://www.w3.org/1999/xlink" xml:space="preserve" xmlns:serif="http://www.serif.com/" style="fill-rule:evenodd;clip-rule:evenodd;stroke-linecap:round;stroke-linejoin:round;stroke-miterlimit:1.5;">
    <g transform="matrix(1,0,0,1,-473.687,-150.443)">
        <g>
            <g transform="matrix(0.862222,0,0,1.19905,85.8222,-404.54)">
                <rect x="485" y="485" width="450" height="211" style="fill:rgb(248,246,177);"/>
            </g>
            <g transform="matrix(1.14607,0,0,1,-114.371,-1)">
                <g transform="matrix(1.9839,0,0,1,-653.489,-124)">
                    <g transform="matrix(3.36778e-17,-0.55,0.472637,2.89407e-17,552.263,534.37)">
                        <rect x="261" y="254" width="160" height="201" style="fill:rgb(255,132,255);"/>
                    </g>
                    <g transform="matrix(0.439815,0,-8.51464e-33,1,500.774,-312.545)">
                        <text x="408px" y="641.191px" style="font-family:'ArialMT', 'Arial', sans-serif;font-size:24px;">3</text>
                    </g>
                </g>
                <g transform="matrix(0.872549,0,0,1,-30.1605,-29.6875)">
                    <text x="827px" y="270.316px" style="font-family:'Arial-BoldMT', 'Arial', sans-serif;font-weight:700;font-size:20px;fill:rgb(0,108,0);">align-self: ﬂex - start</text>
                </g>
            </g>
            <g transform="matrix(1,0,0,1,-15,186)">
                <g transform="matrix(2.52583e-17,-0.4125,0.303483,1.85829e-17,542.228,352.483)">
                    <rect x="261" y="254" width="160" height="201" style="fill:rgb(130,132,255);"/>
                </g>
                <g transform="matrix(1,0,0,1,215.937,-436.688)">
                    <text x="408px" y="641.191px" style="font-family:'ArialMT', 'Arial', sans-serif;font-size:24px;">2</text>
                </g>
            </g>
            <g transform="matrix(1,0,0,1,-15,136)">
                <g transform="matrix(4.43934e-17,-0.725,0.41791,2.55896e-17,429.163,484.045)">
                    <rect x="261" y="254" width="160" height="201" style="fill:rgb(155,138,90);"/>
                </g>
                <g transform="matrix(1,0,0,1,135.224,-432.913)">
                    <text x="408px" y="641.191px" style="font-family:'ArialMT', 'Arial', sans-serif;font-size:24px;">1</text>
                </g>
            </g>
            <g transform="matrix(-0.781784,-9.57409e-17,8.50449e-17,-0.694444,1031.78,628.91)">
                <path d="M172,284L699,284" style="fill:none;stroke:rgb(182,0,0);stroke-width:2.7px;stroke-dasharray:2.7,2.7;"/>
            </g>
            <g transform="matrix(-0.781784,-9.57409e-17,8.38861e-17,-0.684982,1031.78,371.222)">
                <path d="M172,284L699,284" style="fill:none;stroke:rgb(182,0,0);stroke-width:2.72px;stroke-dasharray:2.72,2.72;"/>
            </g>
            <g transform="matrix(1,1.23019e-16,-4.87652e-16,1,-232.688,-50.3125)">
                <text x="823px" y="215.316px" style="font-family:'Arial-BoldMT', 'Arial', sans-serif;font-weight:700;font-size:20px;fill:rgb(0,108,0);">align - items:  ﬂex -end</text>
            </g>
            <g transform="matrix(1,0,0,1,-529,-13)">
                <g transform="matrix(3.06162e-16,-1,1,3.06162e-16,801.687,1195.19)">
                    <text x="823px" y="215.316px" style="font-family:'Arial-BoldMT', 'Arial', sans-serif;font-weight:700;font-size:20px;">cross - axis</text>
                </g>
                <g transform="matrix(-1,1.22465e-16,9.26517e-17,0.756559,1403.31,7.43623)">
                    <g transform="matrix(-5.99872e-17,0.979666,1,6.12323e-17,230.625,133.653)">
                        <path d="M111,146L445,146" style="fill:none;stroke:black;stroke-width:2.27px;"/>
                    </g>
                    <g transform="matrix(-0.733333,-9.13075e-19,-9.13075e-19,-0.718422,1035.53,779.875)">
                        <path d="M898.5,285L906,300L891,300L898.5,285Z" style="stroke:black;stroke-width:3.1px;"/>
                    </g>
                </g>
            </g>
        </g>
    </g>
</svg>
