<?xml version="1.0" encoding="UTF-8" standalone="no"?>
<!DOCTYPE svg PUBLIC "-//W3C//DTD SVG 1.1//EN" "http://www.w3.org/Graphics/SVG/1.1/DTD/svg11.dtd">
<svg width="100%" height="100%" viewBox="0 0 539 689" version="1.1" xmlns="http://www.w3.org/2000/svg" xmlns:xlink="http://www.w3.org/1999/xlink" xml:space="preserve" xmlns:serif="http://www.serif.com/" style="fill-rule:evenodd;clip-rule:evenodd;stroke-linecap:round;stroke-linejoin:round;stroke-miterlimit:1.5;">
    <g transform="matrix(1,0,0,1,-53.6348,-48.7656)">
        <g transform="matrix(1,0,0,1,-24,4)">
            <g transform="matrix(0.7,0,0,1,-8.7,90)">
                <rect x="171" y="54" width="480" height="584" style="fill:rgb(255,255,190);stroke:black;stroke-width:4.63px;"/>
            </g>
            <g transform="matrix(1,0,0,1,0,80)">
                <g transform="matrix(0.55,0,0,0.696517,173.45,328.952)">
                    <rect x="261" y="254" width="160" height="201" style="fill:rgb(52,179,205);"/>
                </g>
                <g transform="matrix(0.55,0,0,0.303483,85.45,507.782)">
                    <rect x="261" y="254" width="160" height="201" style="fill:rgb(0,3,255);"/>
                </g>
                <g transform="matrix(0.725,0,0,0.925373,-76.225,224.822)">
                    <rect x="261" y="254" width="160" height="201" style="fill:rgb(132,103,47);"/>
                </g>
            </g>
            <g transform="matrix(1,0,0,1,0,170)">
                <g transform="matrix(0.55,0,0,0.696517,-29.55,-29.9154)">
                    <rect x="261" y="254" width="160" height="201" style="fill:rgb(218,113,255);"/>
                </g>
                <g transform="matrix(0.55,0,0,0.303483,169.45,148.915)">
                    <rect x="261" y="254" width="160" height="201" style="fill:rgb(0,255,92);"/>
                </g>
                <g transform="matrix(0.69375,0,0,1.14428,20.9312,-233.647)">
                    <rect x="261" y="254" width="160" height="201" style="fill:rgb(0,255,255);"/>
                </g>
            </g>
            <g transform="matrix(0.948767,0,0,1.09846,-48.1879,146.039)">
                <path d="M172,284L699,284" style="fill:none;stroke:rgb(182,0,0);stroke-width:1.95px;stroke-dasharray:1.95,1.95;"/>
            </g>
            <g transform="matrix(0.948767,0,0,1.05985,-52.1879,-158.996)">
                <path d="M172,284L699,284" style="fill:none;stroke:rgb(182,0,0);stroke-width:1.99px;stroke-dasharray:1.99,1.99;"/>
            </g>
            <g transform="matrix(0.948767,0,0,1,-52.1879,448)">
                <path d="M172,284L699,284" style="fill:none;stroke:rgb(182,0,0);stroke-width:2.05px;stroke-dasharray:2.05,2.05;"/>
            </g>
            <g transform="matrix(1,0,0,1,-363.25,176.519)">
                <text x="827px" y="270.326px" style="font-family:'ArialMT', 'Arial', sans-serif;font-size:20px;fill:rgb(182,0,0);">cross end</text>
            </g>
            <g transform="matrix(1,0,0,1,-363.25,453.519)">
                <text x="827px" y="270.326px" style="font-family:'ArialMT', 'Arial', sans-serif;font-size:20px;fill:rgb(182,0,0);">cross end</text>
            </g>
            <g transform="matrix(1,0,0,1,-363.25,-111.5)">
                <text x="827px" y="270.326px" style="font-family:'ArialMT', 'Arial', sans-serif;font-size:20px;fill:rgb(182,0,0);">cross start</text>
            </g>
            <g transform="matrix(1,0,0,1,-363.25,205.5)">
                <text x="827px" y="270.326px" style="font-family:'ArialMT', 'Arial', sans-serif;font-size:20px;fill:rgb(182,0,0);">cross start</text>
            </g>
            <g transform="matrix(1,0,0,1,0,-42)">
                <g transform="matrix(1,0,0,1,-588.875,-45)">
                    <text x="823px" y="215.326px" style="font-family:'ArialMT', 'Arial', sans-serif;font-size:20px;fill:rgb(196,0,255);">main-axis</text>
                </g>
                <g transform="matrix(0.968046,0,0,1,5.54684,29)">
                    <g transform="matrix(4.49037e-17,-0.733333,-0.733333,-4.49037e-17,664.25,804.4)">
                        <path d="M898.5,285L906,300L891,300L898.5,285Z" style="fill:rgb(208,0,255);stroke:rgb(182,0,255);stroke-width:2.77px;"/>
                    </g>
                    <g transform="matrix(1,0,0,1,0,-0.5)">
                        <path d="M111,146L445,146" style="fill:none;stroke:rgb(182,0,255);stroke-width:2.03px;"/>
                    </g>
                </g>
            </g>
            <g transform="matrix(1,0,0,1,12,-38)">
                <g transform="matrix(6.12323e-17,-1,1,6.12323e-17,-135.375,1346.5)">
                    <text x="823px" y="215.326px" style="font-family:'ArialMT', 'Arial', sans-serif;font-size:20px;fill:rgb(196,0,255);">cross-axis</text>
                </g>
                <g>
                    <g transform="matrix(-0.733333,-9.13075e-19,-9.13075e-19,-0.718422,743.525,968.875)">
                        <path d="M898.5,285L906,300L891,300L898.5,285Z" style="fill:rgb(208,0,255);stroke:rgb(182,0,255);stroke-width:2.76px;"/>
                    </g>
                    <g transform="matrix(-2.71173e-16,1.72517,1,-1.0774e-16,-61.375,-3.61942)">
                        <path d="M111,146L445,146" style="fill:none;stroke:rgb(182,0,255);stroke-width:1.42px;"/>
                    </g>
                </g>
            </g>
            <g transform="matrix(1,0,0,1,-710.375,-156)">
                <text x="823px" y="215.326px" style="font-family:'ArialMT', 'Arial', sans-serif;font-size:20px;">ﬂex-direction:</text>
                <text x="947.492px" y="215.326px" style="font-family:'Arial-ItalicMT', 'Arial', sans-serif;font-style:italic;font-size:20px;">row</text>
                <text x="1007.5px" y="215.326px" style="font-family:'ArialMT', 'Arial', sans-serif;font-size:20px;">justify-content:</text>
                <text x="1142px" y="215.326px" style="font-family:'Arial-ItalicMT', 'Arial', sans-serif;font-style:italic;font-size:20px;">ﬂex-start</text>
                <text x="823px" y="247.98px" style="font-family:'Arial-BoldMT', 'Arial', sans-serif;font-weight:700;font-size:20px;fill:rgb(0,150,0);">align-items:</text>
                <text x="940.793px" y="247.98px" style="font-family:'Arial-BoldMT', 'Arial', sans-serif;font-weight:700;font-size:20px;fill:rgb(0,150,0);">end</text>
                <text x="981.906px" y="247.98px" style="font-family:'ArialMT', 'Arial', sans-serif;font-size:20px;fill:rgb(0,150,0);">(position at cross end)</text>
            </g>
            <g transform="matrix(1.06238,0,0,1,-628.924,-298)">
                <g transform="matrix(0.941284,0,0,1,55.3078,219.5)">
                    <text x="827px" y="270.326px" style="font-family:'ArialMT', 'Arial', sans-serif;font-size:20px;fill:rgb(0,0,255);">free space (1 share)</text>
                </g>
                <g transform="matrix(1,0,0,1,-6,169)">
                    <g transform="matrix(-0.733333,0,0,-0.733333,1486.78,564)">
                        <path d="M898.5,285L906,300L891,300L898.5,285Z" style="fill:rgb(0,0,255);stroke:rgb(0,0,255);stroke-width:2.64px;"/>
                    </g>
                    <g transform="matrix(1,0,0,1,3.5,61)">
                        <g transform="matrix(5.75926,0,0,1.60417,-3017.05,-265.854)">
                            <path d="M667,301L667,349" style="fill:none;stroke:rgb(0,0,255);stroke-width:0.45px;"/>
                        </g>
                        <g transform="matrix(-0.733333,0,0,0.733333,1483.28,8)">
                            <path d="M898.5,285L906,300L891,300L898.5,285Z" style="fill:rgb(0,0,255);stroke:rgb(0,0,255);stroke-width:2.64px;"/>
                        </g>
                    </g>
                </g>
            </g>
            <g transform="matrix(1,0,0,1,-664,13)">
                <g transform="matrix(1,0,0,1,6.75,219.5)">
                    <text x="827px" y="270.326px" style="font-family:'ArialMT', 'Arial', sans-serif;font-size:20px;fill:rgb(0,0,255);">free space (1 share)</text>
                </g>
                <g transform="matrix(1,0,0,1,-6,169)">
                    <g transform="matrix(-0.733333,0,0,-0.733333,1486.78,564)">
                        <path d="M898.5,285L906,300L891,300L898.5,285Z" style="fill:rgb(0,0,255);stroke:rgb(0,0,255);stroke-width:2.73px;"/>
                    </g>
                    <g transform="matrix(1,0,0,1,3.5,61)">
                        <g transform="matrix(5.75926,0,0,1.60417,-3017.05,-265.854)">
                            <path d="M667,301L667,349" style="fill:none;stroke:rgb(0,0,255);stroke-width:0.47px;"/>
                        </g>
                        <g transform="matrix(-0.733333,0,0,0.733333,1483.28,8)">
                            <path d="M898.5,285L906,300L891,300L898.5,285Z" style="fill:rgb(0,0,255);stroke:rgb(0,0,255);stroke-width:2.73px;"/>
                        </g>
                    </g>
                </g>
            </g>
            <g transform="matrix(1,0,0,1,-402,58.5)">
                <g transform="matrix(1,0,0,1,88.75,-34.5)">
                    <text x="827px" y="270.326px" style="font-family:'ArialMT', 'Arial', sans-serif;font-size:20px;fill:rgb(0,0,255);">Alignment</text>
                    <text x="854.783px" y="290.98px" style="font-family:'ArialMT', 'Arial', sans-serif;font-size:20px;fill:rgb(0,0,255);">Box</text>
                </g>
                <g>
                    <g transform="matrix(4.77047e-17,0.779077,0.733333,-4.49037e-17,647.718,-458.501)">
                        <path d="M898.5,285L906,300L891,300L898.5,285Z" style="fill:rgb(0,0,255);stroke:rgb(0,0,255);stroke-width:2.64px;"/>
                    </g>
                    <g transform="matrix(-3.74651e-16,-6.11851,-1.04167,6.37837e-17,1220.26,4322.55)">
                        <path d="M667,301L667,349" style="fill:none;stroke:rgb(0,0,255);stroke-width:0.46px;"/>
                    </g>
                </g>
            </g>
            <g transform="matrix(1,0,0,1,-402,353.5)">
                <g transform="matrix(1,0,0,1,88.75,-34.5)">
                    <text x="827px" y="270.326px" style="font-family:'ArialMT', 'Arial', sans-serif;font-size:20px;fill:rgb(0,0,255);">Alignment</text>
                    <text x="854.783px" y="290.98px" style="font-family:'ArialMT', 'Arial', sans-serif;font-size:20px;fill:rgb(0,0,255);">Box</text>
                </g>
                <g>
                    <g transform="matrix(4.77047e-17,0.779077,0.733333,-4.49037e-17,647.718,-458.501)">
                        <path d="M898.5,285L906,300L891,300L898.5,285Z" style="fill:rgb(0,0,255);stroke:rgb(0,0,255);stroke-width:2.64px;"/>
                    </g>
                    <g transform="matrix(-3.74651e-16,-6.11851,-1.04167,6.37837e-17,1220.26,4322.55)">
                        <path d="M667,301L667,349" style="fill:none;stroke:rgb(0,0,255);stroke-width:0.46px;"/>
                    </g>
                </g>
            </g>
        </g>
    </g>
</svg>
